<svg height="512" viewBox="0 0 512 512" width="512" xmlns="http://www.w3.org/2000/svg"><path d="m86 82.666992-76 55 7 21 16.813 14.914002 60.187-21.914002 26 16 4.011002 42.658997-28.011002 60.341003 22 109 10 7 11-7 17 35 36 30h26.164993l63.300003 58 37.537995-27-31-14-5-21-27-5.010986 8.746002-34.813996-43.269989 9.006989-10.479004-13.182007 10.475998-34.593994 58.524002-15.406006 13 19 19-4 7-26.494995 33-26.505005 13-27 80-40 3.407013-23.282989 16.61499-8.058014 17.977997 18.341003 20.955994-18.341003-23.955994-62.658997-31 2-7-11-29 3-34 46s-45-37-41-36 8-13 8-13l57.308014-19.138977 8.076996-20.578003-14.38501-13.28302-39.582001 13.28302-175.417999-12.950012z" fill="#fff"/><path d="m511.86499 203.447021c-.380981-4.328002-.537994-5.78302-1.289001-7.577026-1.852661-4.409973-3.694977-8.823303-5.526978-13.23999-3.800018-9.143005-7.736999-18.600006-11.770019-27.872986-6.084992-14-20.708985-20.307007-34.772003-15-.268982.099976-.524994.199982-.768982.286987-.174012-.320007-.358002-.665008-.556-1.035003-6.239014-11.739014-17.464997-9.82602-22.26001-9.006989-1.451233.279816-2.918365.469849-4.393005.56897-1.549988.109253-3.105164.124603-4.656983.04602-11.333008-.923004-20.664001 3.716004-26.950012 13.421997-2.42688 3.59549-5.265076 6.895478-8.457001 9.833008-4.223938 3.957093-7.993255 8.373078-11.238006 13.165985-.64267.973999-1.284333 1.94867-1.924988 2.924012-2.413666-4.802124-6.43045-8.609162-11.355011-10.761994-3.048004-1.38501-6.071991-2.540008-9-3.656006-1.167999-.445984-2.337006-.892028-3.5-1.350006-1.091522-.358917-2.110687-.908783-3.009979-1.623993-.035797-.231567-.051514-.465759-.046997-.700012-.003266-.215393.013458-.430664.049987-.643005.952851-.745606 2.044312-1.294556 3.210999-1.61499 3.553009-1.239991 7.22699-2.458985 10.781006-3.638978 8.372986-2.779022 17.029999-5.653015 25.467987-9.218017 8.800018-3.716004 16.515015-9.045014 22.907013-13.768005 8.669983-6.404999 11.485992-17.569001 7.009003-27.781983-2.278016-5.205017-8.31601-13.949036-23.125-14.012024h-.200013c-9.718994 0-18.317993 2.955994-25.908996 5.56601-2.600006.894012-5.052002 1.736999-7.493012 2.455993l-.349975.100006c-1.808747.632386-3.68512 1.051545-5.591004 1.248993-7.207-.16098-14.595001-.492004-21.74002-.811981-5.056977-.226013-10.286988-.460998-15.462983-.636017-.125 0-.248993-.006012-.373993-.006012-5.944915.000275-10.791504 4.767395-10.890045 10.711487-.098511 5.944092 4.587403 10.869232 10.529022 11.066528 5.055024.169983 10.225007.399994 15.223999.625 7.264008.325989 14.777009.662995 22.230011.828003 4.166138-.058441 8.29657-.778076 12.237-2.132019l.341003-.099975c2.908997-.856018 5.712006-1.821015 8.423005-2.752991 6.554992-2.253021 12.746978-4.382019 18.826995-4.382019h.110993c2.850006.011993 3.114013.613007 3.272003.973999.196411.386292.295624.814697.289001 1.247986-.083679.102508-.181701.192444-.291015.267029-5.363983 3.962982-11.75 8.394989-18.442993 11.222992-7.641999 3.230011-15.515992 5.842987-23.85199 8.609985-3.630005 1.200012-7.38501 2.451019-11.093018 3.746002-14.720977 5.13501-17.842987 15.200012-17.868988 22.747009-.037994 10.612977 5.627014 18.237977 16.842011 22.666993 1.238006.489013 2.484985.965027 3.72998 1.440002 2.735016 1.044006 5.317017 2.028992 7.75 3.13501.81601.369995 1.188019.539978.779999 2.333008-.599976 2.617981-2.052002 11.568969 4.222015 16.846008 3.580384 2.945007 8.251984 4.21283 12.829987 3.481995 5.165863-.700806 9.805145-3.524964 12.800018-7.792023 2.390992-3.539002 4.755982-7.139984 7.043-10.621002l2.799987-4.252014c2.421723-3.528718 5.231629-6.774659 8.377015-9.676972 4.315643-4.034393 8.147674-8.556732 11.419006-13.476013 1.915985-2.957977 3.599975-3.822998 6.899994-3.551972 2.492981.163819 4.994018.163819 7.486999 0 2.349121-.135559 4.687195-.420776 7-.854003.164978-.028016.339997-.058014.519989-.087037 2.306 4.173035 5.153015 8.411011 10.235993 10.407013 6.109009 2.399994 11.817016.243012 16.852997-1.655975 3.095001-1.170013 5.686004.039002 7.106018 3.306976 3.963989 9.118988 7.863006 18.493012 11.635009 27.558014 1.666657 4.005982 3.335663 8.005982 5.006989 12 .053009.5.123993 1.25.221985 2.354004.311371 2.700745-.392182 5.420868-1.973999 7.631989-.78125 1.050964-1.771729 1.928741-2.908997 2.578003-.81195-.789338-1.529114-1.670624-2.136993-2.626007-5.974091-8.9469-16.825745-13.311585-27.330994-10.992981l-.265015.05899c-13.132598 2.918366-21.844451 15.405243-20.049987 28.738007.087982.684997.12799 1.25.141998 1.704986-23.571991 8.526001-44.227997 20.5-61.423004 31.179993-11.033997 6.85202-19.010987 15.343994-24.382996 25.96402-3.597381 7.396728-9.46347 13.450958-16.743011 17.279998-15.711975 8.358979-26.031983 21.450989-30.673004 38.910981-.599976 2.236023-1.255982 4.555023-1.973999 6.917022-6.330994-11.975006-14.5-16.269012-28.5-15.226013l-1.422974.105988c-9.07901.675018-18.466019 1.373016-27.782013 2.594024-15.192993 1.989991-26.716003 10.613984-33.322006 24.940979-2.811997 6.100007-5.159989 12.279999-7.138993 17.593018-4.325164 10.976807-1.218872 23.488678 7.737992 31.167999 8.793014 7.690003 21.355011 8.949005 32 3.209992 2.800003-1.510987 5.549011-3.091004 8.234009-4.665009-1.048005 2.200012-2.113999 4.457001-3.121994 6.787995-2.40001 5.54602-2.346009 11.178009.15599 15.860015 2.511002 4.700013 7.194 7.891999 13.185013 8.988007 7.773987 1.423981 10.309998 3.270996 10.953979 3.867004-.03836.239838-.094512.476471-.167999.707978-1.451996 4.782013-2.466003 13.900024 7.059021 21.253021 5.27298 4.071991 11.354981 8.221985 18.582978 10.871979-2.811982 1.925018-5.448975 3.739013-7.31598 5.242004-2.835021 2.282013-3.61502 2.27301-6.417999-.106995-4.574005-3.881988-9.151367-7.759674-13.732025-11.632995-12.019989-10.165009-24.441986-20.681-36.541992-31.130005-8.099991-7-16.826996-9.881012-26.676987-8.807007-3.144012.338013-6.154007-.539978-9.469009-2.777984-2.987992-2.016022-5.977326-4.029694-8.968003-6.041016-6.395996-4.303986-12.782989-8.620667-19.160995-12.949982-4.403824-2.729889-7.066238-7.557861-7.024994-12.739013-.017548-3.923462-.954605-7.788208-2.736008-11.283997-2.875991-5.264008-5.906005-10.390015-9.113998-15.816986l-.240997-.406006c-2.286805-3.862244-6.289185-6.391357-10.75911-6.798737-4.469925-.407379-8.863571 1.356537-11.81089 4.74173-8.354897-23.691223-14.737618-48.032409-19.083-72.774994-2.743714-14.397918-.072815-29.30191 7.5-41.851013 11.799995-20.304993 17.832992-43.059997 17.923996-67.63501.143554-12.369781-4.808777-24.253723-13.694-32.860992-8.271035-7.881622-19.456826-11.952667-30.859002-11.230988-4.333397.349793-8.597877 1.295349-12.672996 2.809998-5.833 2.024994-11.700005 4.154999-17.364002 6.21698-4.945 1.800018-10.057 3.655029-15.076001 5.416016-6.159999 2.158996-15.168998-.580994-19.281997-5.869996-4.113001-5.289001-3.236-12.200012 2.077999-16.442993 2.314369-1.856994 4.619068-3.726043 6.914001-5.606994 8.218998-6.710022 15.982998-13.048035 24.379998-18.19101 23.767002-14.558014 42.783001-20.736999 61.716999-20.085998 2.573745.074096 108.261528 7.716919 136.579002 8.860992 10.216217.41275 10.879669-5.588989 11-9 .137238-3.88974-.843842-9.738129-10-11-21.455704-2.95694-134.717049-10.543518-136.810997-10.630981-30.051003-1.069031-55.268005 11.884979-73.871002 23.280975-9.654 5.912994-18.360001 13.019989-26.778 19.891998-2.244001 1.832001-4.487001 3.664002-6.742001 5.468018-6.972528 5.451843-11.488669 13.454498-12.551523 22.241394-1.062855 8.786865 1.414973 17.635498 6.886523 24.59259 9.885 12.705994 28.661998 18.314026 43.681999 13.046997 5.136001-1.799988 10.308002-3.680969 15.309002-5.5 5.599998-2.032989 11.383003-4.136993 17.068-6.110992 2.188637-.83078 4.473343-1.382111 6.799996-1.640991 5.395645-.347565 10.691322 1.573669 14.609001 5.299987 4.556503 4.448059 7.052055 10.594513 6.886002 16.959992-.075997 20.708008-5.113999 39.808014-14.973 56.770019-10.13987 17.013123-13.734001 37.137726-10.110001 56.609009 4.877739 27.819885 12.228562 55.148956 21.965004 81.661987 4.787995 12.92099 15.081993 13.739991 19.277001 13.484009 3.219627-.149231 6.345466-1.131225 9.071998-2.850006.996003 1.736664 1.964997 3.462647 2.906998 5.178009.127335.616669.194321 1.244293.199997 1.873993.234009 12.091553 6.421219 23.28833 16.533997 29.92099 6.404678 4.363983 12.825668 8.703339 19.263 13.018005 2.984009 2.007996 5.966339 4.016999 8.947006 6.027008 7.610001 5.135987 15.686005 7.277985 24.009995 6.376984 3.700012-.399994 6.625.649994 10.080002 3.634003 12.177002 10.520996 24.647003 21.074005 36.699997 31.278992 4.572006 3.866668 9.141677 7.73767 13.708999 11.613006 5.471008 4.643005 11.382996 6.968018 17.31601 6.968018 5.725982 0 11.471985-2.165009 16.858001-6.5 1.286011-1.035004 3.83899-2.784027 6.309998-4.473999 4.519989-3.094025 9.200012-6.294007 12.028992-9.024018 3.527008-3.399994 7.069-9.640991 5.442993-16.052002-1.763977-6.949005-9.192993-11.442993-15.064972-11.622985-7-.213013-12.882019-3.507019-19.419006-8.453003 1.50064-5.616974.654968-11.6026-2.343018-16.584015-3.799988-6.233002-10.742981-10.552002-21.151001-13.130982.45401-.964019.92102-1.941009 1.400024-2.938995.750977-1.572022 1.5-3.14502 2.230988-4.725006 3.882996-8.411011 2.339996-17.035004-4.123016-23.067993-6.799988-6.350006-15.757981-7.256012-23.962983-2.421021l-2.07901 1.226013c-3.719986 2.199982-7.232986 4.272003-10.832992 6.21399-2.682999 1.445007-5.352997 1.290008-7.324005-.436005-2.108185-1.737701-2.790467-4.672546-1.664994-7.161987 1.841996-4.942994 4.015992-10.670014 6.509995-16.078003 3.455002-7.493988 8.656998-11.45401 16.369003-12.46399 8.712006-1.141998 17.790009-1.817016 26.569-2.470001l1.424988-.106018c5.665009-.423004 5.666016-.421997 8.21402 4.865021 3.912994 8.109985 11.076996 12.543976 19.671997 12.213989 8.823517-.422851 16.44101-6.317779 19.063995-14.752991 1.060456-3.358703 2.045044-6.740905 2.953003-10.144012 3.065003-11.531006 9.558991-19.799988 19.852997-25.276001 11.238343-5.944824 20.317627-15.279877 25.947998-26.678986 3.516999-6.951019 8.894013-12.606018 16.436005-17.290008 16.806-10.433991 37.040008-22.162018 59.679993-30.031006 3.328003-1.156006 14.007019-6.315979 11.716003-24.135986-.311645-2.168152 1.088196-4.214051 3.222015-4.709015l.264985-.058991c1.691711-.37561 3.440216.328125 4.399993 1.770996 11.141022 16.815979 24.319001 12.690003 28.092011 11.026978 4.927399-2.156128 9.217956-5.542419 12.459991-9.833984 4.862732-6.519104 7.118805-14.617676 6.326996-22.711976z"/><path d="m296.647003 95.580017c0 5.522827-4.477142 9.99997-10 9.99997-5.522857 0-10-4.477143-10-9.99997 0-5.522858 4.477143-10 10-10 5.522858 0 10 4.477142 10 10z"/></svg>