<?xml version="1.0" standalone="no"?>
<!DOCTYPE svg PUBLIC "-//W3C//DTD SVG 20010904//EN"
 "http://www.w3.org/TR/2001/REC-SVG-20010904/DTD/svg10.dtd">
<svg version="1.0" xmlns="http://www.w3.org/2000/svg"
 width="700.000000pt" height="700.000000pt" viewBox="0 0 700.000000 700.000000"
 preserveAspectRatio="xMidYMid meet">
<g transform="translate(0.000000,700.000000) scale(0.100000,-0.100000)"
fill="#000000" stroke="none">
<path d="M1750 5688 l0 -438 -438 0 -437 0 0 -1750 0 -1750 437 0 438 0 0
-438 0 -437 2183 1 c1200 1 2184 2 2187 3 3 0 5 589 5 1309 l0 1307 -1313 3
-1312 2 2 -437 3 -438 420 -1 c231 -1 427 -2 435 -3 14 -1 15 -53 14 -428 -1
-236 -2 -431 -3 -435 0 -5 -392 -8 -870 -8 -686 0 -870 3 -873 13 -4 10 -3
3458 1 3480 0 4 394 6 873 5 l873 -3 0 -435 0 -435 873 0 c479 0 873 2 873 5
1 3 2 200 3 438 l1 432 -437 0 -438 0 0 438 0 437 -1750 0 -1750 0 0 -437z"/>
</g>
</svg>
