<svg enable-background="new 0 0 511.999 511.999" viewBox="0 0 511.999 511.999" xmlns="http://www.w3.org/2000/svg"><g fill="#bc002d"><path d="m103.085 490.311c2.669 9.603 15.985 9.847 19.414.487 1.304-3.56 3.714-6.353 8.067-6.353 12.004 0 25.855-3.694 25.855-13.851s-18.929-18.006-26.778-10.157-26.317.461-27.702 14.774c-.491 5.069-.171 10.368 1.144 15.1z"/><path d="m340.583 172.178s15.626 70.689-19.347 105.662c-21.129 21.129-46.061 28.135-62.488 30.371-11.884 1.617-22.453 8.374-28.707 18.607l-11.866 19.419c-6.76 11.06-19.365 17.221-32.222 15.577-10.365-1.325-22.915-4.24-34.342-10.455-10.857-5.905-24.048-5.531-34.645.827l-40.38 24.228c-7.261 4.358-8.495 14.379-2.507 20.367 3.598 3.598 8.956 4.774 13.726 3.001 13.609-5.059 42.442-13.965 62.288-7.35 0 0-33.484 21.579-14.882 40.182 9.405 9.405 20.332.17 28.838-11.26 6.971-9.369 20.665-9.907 28.441-1.193 5.426 6.08 12.235 10.966 20.107 10.966 20.835 0 26.788-29.764 16.37-40.182 0 0 108.639 13.394 129.474-25.299s-2.977-55.063 14.882-95.245c17.858-40.182 36.461-91.524 17.858-110.127s-50.598-16.372-50.598 11.904z"/><path d="m454.838 119.775c8.787-9.195 23.404-16.174 39.535-15.443 7.726.35 12.638-8.244 8.558-14.815-5.996-9.656-15.514-21.043-29.899-28.955-18.265-10.045-18.596-28.497-25.412-43.319-6.351-13.812-26.705-11.069-29.192 3.928-3.918 23.618-13.885 56.652-39.153 63.203-40.182 10.418-22.323 43.158-22.323 43.158s14.882-37.205 52.087-13.394l14.261 9.127c10.023 6.413 23.319 5.111 31.538-3.49z"/><path d="m80.148 440.053c-12.263-18.414-41.669-44.646-65.481-20.835-23.811 23.811 20.835 25.299 13.394 47.623-7.441 22.323 17.114 46.878 31.253 32.74 14.139-14.139 31.558-43.424 20.834-59.528z"/></g><path d="m149.258 451.889c-9.372-3.883-19.182-2.638-24.993 3.171-1.391 1.391-5.279 1.902-8.709 2.353-6.914.908-19.784 2.601-21.184 17.066-.605 6.25-.125 12.428 1.386 17.867 2.094 7.531 8.475 12.599 16.257 12.911.244.01.487.014.729.014 7.539 0 14.268-4.691 16.894-11.859.313-.857.598-1.231.706-1.352.047-.006.119-.012.221-.012 20.325 0 33.459-8.421 33.459-21.455 0-7.764-5.658-14.931-14.766-18.704zm-18.693 24.952c-7.025 0-12.568 4.134-15.208 11.342-.648 1.767-2.112 1.902-2.733 1.879-1.151-.046-1.895-.647-2.212-1.786-1.002-3.606-1.323-7.985-.903-12.332.191-1.962.235-2.427 8.029-3.452 5.542-.729 12.438-1.635 17.48-6.677 1.169-1.169 4.638-1.441 8.419.125 3.582 1.483 5.38 3.784 5.38 4.656-.001 3.384-8.359 6.245-18.252 6.245z"/><path d="m350.765 143.113c-11.303 4.682-17.785 15.276-17.785 29.065 0 .549.061 1.1.178 1.636.147.667 14.277 67.075-17.298 98.65-19.423 19.423-42.336 26.063-58.139 28.213-14.291 1.945-26.745 10.028-34.169 22.176l-11.866 19.418c-5.222 8.546-14.952 13.255-24.77 12-12.176-1.556-22.832-4.783-31.673-9.592-13.117-7.135-29.284-6.757-42.19.986l-40.379 24.228c-5.483 3.29-9.076 8.817-9.859 15.163-.782 6.347 1.365 12.579 5.887 17.102 5.685 5.685 14.22 7.55 21.752 4.752 8.354-3.105 26.019-8.917 41.904-9.231-4.899 5.416-9.414 12.361-10.242 20.1-.55 5.15.343 12.838 7.718 20.214 4.92 4.919 10.043 6.107 13.842 6.107.463 0 .908-.018 1.33-.049 8.277-.604 16.501-6.544 25.142-18.156 1.965-2.639 4.838-4.172 8.094-4.317 3.238-.147 6.376 1.184 8.574 3.648 7.998 8.963 16.672 13.507 25.781 13.507 11.519 0 21.265-6.924 26.069-18.521 2.767-6.681 3.521-13.984 2.435-20.496 10.934.808 27.531 1.569 45.169.687 42.342-2.117 68.876-12.597 78.865-31.149 11.813-21.938 10.552-37.531 9.335-52.61-1.058-13.097-2.058-25.469 5.801-43.151 2.762-6.213 5.24-12.009 7.499-17.544 1.603-3.926-.332-8.4-4.283-9.941l-.006-.002c-3.871-1.51-8.229.368-9.799 4.214-2.198 5.384-4.613 11.032-7.308 17.096-9.433 21.223-8.174 36.806-7.063 50.554 1.136 14.054 2.116 26.192-7.567 44.175-7.073 13.135-30.528 21.36-66.045 23.161-28.787 1.459-55.537-1.77-55.805-1.804-3.966-.49-7.754 2.18-8.454 6.39-.403 2.423.532 4.843 2.231 6.619 2.844 2.974 3.898 10.842.941 17.982-1.726 4.167-5.212 9.133-12.018 9.133-4.588 0-9.444-2.835-14.434-8.425-5.256-5.887-12.79-9.062-20.597-8.714-7.794.347-14.943 4.15-19.619 10.432-8.06 10.834-12.79 11.976-14.047 12.067-.466.034-1.553.114-3.312-1.645-3.385-3.385-3.533-6.088-3.351-7.827.88-8.378 12.859-17.912 16.974-20.586 2.922-1.883 4.252-5.558 3.036-8.977-.812-2.283-2.751-3.979-5.055-4.73-21.691-7.056-51.284 1.68-67.038 7.536-1.971.732-4.207.241-5.699-1.251-1.626-1.625-1.666-3.51-1.545-4.489s.616-2.798 2.588-3.98l40.379-24.228c8.309-4.984 18.691-5.241 27.1-.667 10.505 5.713 22.958 9.521 37.011 11.318 15.767 2.017 31.332-5.504 39.675-19.155l11.866-19.419c5.03-8.231 13.502-13.712 23.244-15.037 18.118-2.466 44.421-10.11 66.841-32.528 35.709-35.709 23.414-102.855 21.582-111.79.181-7.235 3.001-12.032 8.388-14.264 8.493-3.519 20.784.05 29.22 8.485 5.533 5.533 9.545 19.533-1.258 54.639-1.215 3.948.911 8.15 4.825 9.469 4.051 1.366 8.443-.882 9.698-4.969 10.644-34.67 9.807-57.575-2.511-69.892-12.798-12.807-31.629-17.651-45.79-11.786z"/><path d="m509.392 85.506c-8.526-13.73-19.526-24.364-32.694-31.606-10.671-5.869-13.717-15.379-17.244-26.392-1.419-4.432-2.888-9.014-4.922-13.441-4.318-9.39-13.719-14.573-23.957-13.201-10.242 1.374-17.954 8.855-19.646 19.061-3.133 18.882-11.658 51.408-33.56 57.086-14.979 3.884-24.864 11.136-29.38 21.556-6.781 15.652 1.915 31.919 2.289 32.604 1.336 2.451 3.907 3.945 6.676 3.945.14 0 .28-.004.42-.011 2.927-.159 5.509-2.005 6.626-4.716.051-.123 5.186-12.335 15.916-15.718 7.049-2.221 15.468-.246 25.026 5.87l14.26 9.127c13.194 8.445 30.495 6.494 41.133-4.641h.001c6.476-6.778 18.7-13.785 33.693-13.1 6.348.285 12.329-2.967 15.569-8.494 3.274-5.583 3.194-12.453-.206-17.929zm-12.912 10.237c-.28.477-.802 1.037-1.762.993-17.049-.773-33.997 5.878-45.377 17.786h.001c-5.63 5.89-14.856 6.873-21.941 2.339l-14.26-9.127c-9.546-6.11-18.682-9.176-27.289-9.176-3.655 0-7.217.554-10.671 1.662-5.925 1.901-10.694 5.217-14.426 8.808.193-1.506.578-3.02 1.223-4.486 2.577-5.861 9.041-10.17 19.208-12.806 15.85-4.109 36.478-19.47 44.747-69.32.878-5.297 5.323-6.295 6.663-6.476 1.342-.179 5.88-.386 8.118 4.481 1.651 3.59 2.917 7.542 4.256 11.726 3.948 12.323 8.421 26.29 24.399 35.078 10.853 5.969 19.971 14.819 27.103 26.303.585.941.256 1.792.008 2.215z"/><path d="m70.351 428.397-.006.006c-2.872 2.751-3.107 7.225-.609 10.32 1.477 1.831 2.852 3.697 4.084 5.546 7.443 11.177-6.565 36.618-19.883 49.936-.922.923-3.73 3.728-9.362.247-7.059-4.362-12.62-15.24-9.298-25.206 4.985-14.958-5.775-23.773-12.896-29.606-3.152-2.582-7.076-5.796-7.169-7.681-.02-.402.12-2.648 4.834-7.363 8.044-8.042 17.235-9.431 27.966-4.177 3.377 1.654 7.466.469 9.553-2.659 2.546-3.818 1.162-9.033-2.966-11.04-16.642-8.095-32.503-5.681-45.307 7.122-6.542 6.543-9.574 12.715-9.27 18.869.428 8.622 6.959 13.972 12.722 18.693 7.577 6.207 9.56 8.671 8.105 13.032-5.749 17.247 3.484 35.383 15.731 42.952 4.291 2.652 8.77 3.963 13.085 3.963 5.529 0 10.787-2.152 15.027-6.393 8.606-8.607 16.586-20.343 21.347-31.396 6.569-15.249 6.72-28.293.44-37.724-1.511-2.269-3.196-4.551-5.002-6.784-2.784-3.435-7.933-3.715-11.126-.657z"/></svg>