<svg enable-background="new 0 0 512 512" height="512" viewBox="0 0 512 512" width="512" xmlns="http://www.w3.org/2000/svg"><path d="m89.322 100.762c-18.6-1.699-35.913 9.647-41.684 27.35-8.063 24.734-20.236 58.927-32.063 80.013-3.69 6.579-5.575 14.009-5.575 21.545 0 13.459 6.104 26.197 16.607 34.657l18.73 15.087c8.239 6.637 13.354 16.375 14.132 26.904 1.002 13.558 9.193 25.49 21.416 31.525 11.167 5.513 26.336 14.907 43.489 30.668 3.345 3.074 7.519 5.117 12.005 5.875 7.869 1.329 15.878-1.409 21.271-7.272l8.429-9.164c4.375-4.756 12.063-4.179 15.673 1.178l15.109 22.418c4.879 7.239 13.055 11.582 21.806 11.582 7.481 11.345 23.975 11.901 32.208 1.086l5-6.568c9.349-12.281 28.711-16.841 39.258-20.051 10.57-3.218 34.211-11.631 44.599 7.283 14.768 26.889 34.84 43.577 54.435 45.99 4.961.611 16.335-.462 17.321-12.279.383-4.593-1.439-9.099-4.71-12.358l-13.969-13.921c-13.833-13.786-15.631-35.52-4.251-51.377l18.108-25.232c11.776-16.408 20.215-34.955 24.842-54.594 4.293-18.221 11.87-35.514 22.364-51.037l44.982-66.541c2.052-3.035 3.147-6.611 3.147-10.27v-13.875c-.001-10.155-8.258-18.384-18.445-18.384-6.268 0-12.108 3.173-15.503 8.424l-16.674 25.785c-4.38 6.773-11.43 11.383-19.409 12.69-13.825 2.265-23.97 14.173-23.97 28.135v23.647c0 10.808-8.433 20.012-19.271 20.397-11.377.403-20.729-8.67-20.729-19.919v-9.472c0-10.9-8.573-20.143-19.507-20.419-11.381-.288-16.808 9.376-20.493 19.925-2.677 7.663-14.455 23.83-22 28.901-7.167 4.817-20.667 8.139-29.142-4.841-4.98-7.627-2.858-18.412 6.767-35.769 5.756-10.38 11.097-22.202.468-30.044-8.485-6.261-20.376-5.086-27.842 2.353l-21.061 20.988v-38.6c0-5.151-3.94-9.454-9.087-9.924z" fill="#fff"/><path d="m503.66 89.3c-5.37-5.35-12.51-8.3-20.1-8.3-4.74 0-9.45 1.2-13.61 3.46s-7.72 5.56-10.29 9.53l-16.68 25.79c-2.233 3.448-5.554 6.048-9.386 7.415-1.025.366-6.556 1.491-8.161 1.976-7.067 2.136-13.419 6.265-18.243 11.929-5.92 6.95-9.19 15.81-9.19 24.93v23.65c0 2.71-1.02 5.29-2.87 7.28-1.85 1.94-4.18 3.03-6.75 3.12-.13.01-1.263-.029-1.431-.047-5.01-.533-8.94-4.766-8.949-9.874v-9.47c0-7.88-2.98-15.36-8.39-21.07-2.65-2.81-5.77-5.05-9.29-6.66-3.428-1.583-7.066-2.473-10.817-2.661-.254-.013-1.593-.039-1.593-.039-4.12 0-8.15.94-11.66 2.71-4.54 2.28-8.46 5.97-11.66 10.95-2.91 4.57-4.75 9.33-6.03 12.98-.29.87-7.77 12.96-10.68 16.45-2.9 3.54-6.07 6.57-7.46 7.45-1.87 1.3-5.19 2.6-7.81 2.56-1.39-.01-2.5-.27-3.61-.85-.95-.51-2.24-1.4-3.77-3.72-.63-1.03-.94-1.86-.98-3.77-.13-4.3 2.9-12.41 8.12-21.69 1.77-3.19 3.61-6.67 5.11-10.51 1.86-4.81 2.69-8.78 2.71-12.86.01-3.75-.84-7.41-2.44-10.61-1.69-3.39-4.36-6.685-7.72-9.155-5.24-3.87-11.73-6.195-18.29-6.195h-.04c-4.14 0-8.19.995-12.03 2.565-3.93 1.61-7.555 4.037-10.575 7.048l-4.095 4.088v-14.52c0-5-1.765-9.78-5.145-13.47-3.37-3.68-7.912-5.96-12.892-6.41 0 0-139.806-12.71-141.336-12.71-5.29 0-10.498.83-15.518 2.47-4.92 1.61-9.534 3.95-13.734 6.98-8.64 6.22-14.947 14.86-18.247 24.97-4.91 15.06-9.768 28.81-14.438 40.87-6 15.51-11.82 28.43-16.839 37.35-4.48 8-6.85 17.14-6.85 26.44 0 8.09 1.85 16.22 5.35 23.52 3.49 7.3 8.68 13.84 14.98 18.93l18.73 15.08c6.06 4.88 9.86 12.12 10.44 19.86.62 8.38 3.45 16.5 8.2 23.47 4.72 6.93 11.21 12.56 18.76 16.28 13.65 6.74 27.5 16.52 41.15 29.07 4.78 4.39 10.7 7.28 17.1 8.37 1.85.31 3.74.47 5.6.47 9.36 0 18.36-3.95 24.7-10.83l8.42-9.16.01-.01c.01 0 .02 0 .03.01l15.1 22.4c5.73 8.51 14.86 14.215 25.03 15.645 5.56 5.86 13.49 9.225 21.56 9.225 4.4 0 8.95-1.025 12.95-2.955 4.25-2.05 7.86-5.003 10.72-8.773l5-6.572c2.78-3.74 8.14-7.39 15.1-10.26 5.2-2.19 27.07-9.441 39.24-10.441 1.921-.158 5.58.465 7.57 1.455 1.9.98 3.52 2.232 5.23 5.252 7.91 14.4 17.24 26.171 27.73 35.001 5.31 4.47 10.85 8.086 16.47 10.766 5.85 2.79 11.83 4.578 17.77 5.318 1.14.14 2.29.209 3.52.209 3.54-.04 8.9-.471 14.5-3.851 2.02-1.24 4.89-3.46 7.1-7.04 1.473-2.365 2.507-5.12 3.047-8.075.156-.856.433-3.965.433-4.655-.02-6.82-2.75-13.29-7.7-18.23l-13.97-13.93c-5.65-5.63-8.77-13.13-8.78-21.11.01-6.26 1.94-12.26 5.59-17.35l18.11-25.23c4.13-5.76 7.93-11.84 11.28-18.09 1.26-2.35 1.53-5.05.76-7.61s-2.49-4.66-4.84-5.93c-1.45-.78-3.09-1.19-4.72-1.19-3.7 0-7.08 2.02-8.82 5.27-2.102 3.913-4.406 7.749-6.865 11.461l-42.231-2.043 25.531-73.47c1.029.105 3.856.152 4.186.141 3.99-.14 7.86-1.07 11.48-2.77 3.48-1.63 6.57-3.87 9.18-6.68 5.33-5.69 8.27-13.13 8.27-20.94v-23.65c-.01-9.1 6.55-16.78 15.59-18.26 10.74-1.76 20.28-8.01 26.19-17.13l16.67-25.789c1.56-2.41 4.21-3.85 7.11-3.85 4.64.01 8.43 3.77 8.44 8.38v13.88c0 1.67-.5 3.28-1.43 4.66 0 0-47.49 70.33-48.66 72.23-1.4 2.28-1.84 4.96-1.22 7.56.61 2.6 2.2 4.8 4.47 6.21 1.58.97 3.4 1.49 5.25 1.49 3.49 0 6.68-1.77 8.52-4.75 1.05-1.7 48.21-71.53 48.21-71.53 3.18-4.71 4.86-10.19 4.86-15.87v-13.88c-.012-7.589-2.972-14.719-8.342-20.079zm-278.66 33.92v38.56c0 4.06 2.515 7.68 6.265 9.24 1.22.5 2.557.76 3.878.76 2.66 0 5.194-1.03 7.084-2.92l21.072-20.98c2.21-2.22 5.276-3.49 8.396-3.49 2.4.01 4.477.867 6.453 2.1 2.02 1.26 1.991 4.499 1.875 5.124-.214 1.155-.625 2.529-1.182 3.936-.83 2.15-2.09 4.72-3.96 8.08-6.29 11.49-10.51 21.23-10.63 31.39-.03 5.31 1.47 10.53 4.23 14.7.521.801 1.079 1.561 1.653 2.302l-15.52 16.745-66.35-46.781c-4.464-3.147-10.629-2.13-13.846 2.286l-39.663 54.46-34.146-20.077 50.752-102.173zm17.761 121.662-23.961 41.343-66.597-37.478 32.584-44.74zm-185.621-113.672c4.01-12.33 15.47-20.62 28.51-20.62.92 0 44.436 3.939 44.436 3.939l-47.124 94.692-46.14-22.443c1.793-4.258 15.308-40.188 20.318-55.568zm28.17 197.669c-9.06-4.48-15.14-13.41-15.87-23.3-.49-6.61-2.3-12.95-5.39-18.82-3.08-5.88-7.27-10.97-12.44-15.13l-18.73-15.09c-8.19-6.59-12.88-16.389-12.88-26.869 0-5.88 1.49-11.64 4.3-16.65 1.392-2.486 2.802-5.161 4.235-8.033l96.739 51.372-28.467 78.815c-3.856-2.313-7.7-4.424-11.497-6.295zm185.87 36.12c-4.87 2.07-8.78 4.13-12.28 6.47-4.43 2.97-8.02 6.28-10.98 10.12l-5 6.57c-1.9 2.47-4.59 3.8-7.75 3.83-3.41-.04-6.31-1.59-8.15-4.37-1.86-2.81-4.98-4.49-8.36-4.49-5.43 0-10.48-2.68-13.51-7.17l-15.1-22.42c-1.86-2.76-4.41-5.04-7.37-6.57-2.84-1.47-6.083-2.25-9.233-2.25-5.54 0-10.966 2.35-14.727 6.46l-8.43 9.17c-3.07 3.33-7.73 4.93-12.25 4.18-2.58-.44-4.97-1.61-6.9-3.38-5.654-5.199-11.433-10.012-17.249-14.401l29.001-80.292 74.704 42.041c1.229.691 2.542 1.084 3.861 1.222.269.039 53.359.064 53.359.064l2.394 52.908c-1.974.696-3.999 1.457-6.03 2.308zm116.644-50.201-7.394 10.302c-3.07 4.28-5.43 8.98-7.02 13.98-1.54 4.87-2.32 9.93-2.32 15.03 0 6.48 1.24 12.82 3.7 18.84 2.53 6.18 6.21 11.71 10.96 16.44l13.97 13.92c2.999 2.627 1.46 6.05 1.33 6.27-.19.28-1.581 1.701-5.66 1.36-7.72-.94-15.96-4.93-23.81-11.54-8.48-7.12-16.46-17.27-23.08-29.34-3.25-5.98-8.19-10.81-13.93-13.59-4.85-2.38-10.22-3.54-16.43-3.54-8.228.035-15.683 1.999-21.185 3.655l-2.094-46.283zm-49.294-22.408s-40.414-2.269-53.901-2.596c-11.19-.271-44.775-.013-44.775-.013l24.238-41.821 23.255-25.271c1.707.321 5.263.309 5.263.309 6.68 0 13.07-1.88 18.97-5.79 2.55-1.73 4.93-3.74 7.95-6.94 3.62-3.85 7.28-8.435 10.61-13.345 2.63-3.95 5.56-8.607 7.3-13.457 1.63-4.76 3.734-8.502 5.36-10.628 2.617-3.422 6.903-2.455 7.605-2.273 1.75.456 3.34 1.403 4.676 2.802 1.89 1.99 2.92 4.592 2.92 7.322v9.47c.01 7.964 3.104 15.451 8.726 21.093z"/><circle cx="432.647" cy="246.58" r="10"/></svg>