<svg enable-background="new 0 0 512.055 512.055" height="512" viewBox="0 0 512.055 512.055" width="512" xmlns="http://www.w3.org/2000/svg"><g fill="#fff"><path d="m84.994 112.977-72.089 67.328 8.841 26.78 7.481-2.977v50.836l-16.322 18.702 6.801 7.991-6.052 13.617c-3.157 7.103-4.268 14.946-3.208 22.646 2.136 15.521 12.782 28.539 27.57 33.713l171.263 59.92h44.886l13.772-6.631 38.765 35.194h14.792l-18.872 36.725h35.704l39.989-45.647 20.199-5.359v-23.973l24.804 16.241c9.861 6.456 23.109 3.45 29.218-6.629l16.026-26.444-34.365-12.18c-7.337-2.601-8.023-12.708-1.104-16.276l10.228-5.274c9.447-4.871 15.986-13.976 17.584-24.484 2.253-14.813-5.708-29.296-19.422-35.332l-47.77-21.027c-4.082-1.797-8.865-.512-11.498 3.088l-.744 1.017c-5.146 7.038-15.55 7.328-21.081.588-6.864-8.366-17.116-13.215-27.937-13.215-12.902 0-22.839 11.384-21.096 24.167.514 3.769 2.028 7.331 4.385 10.316l16.803 21.283-12.922 26.523 1.582 18.983c.61 7.316-8.297 11.355-13.398 6.076l-12.667-13.107-4.081-21.472-28.9-12.565c-19.971-8.683-31.856-29.463-29.214-51.079 1.843-15.082 12.335-27.692 26.83-32.247l29.244-46.246-35.364 10.201-24.958-22.176-17.887 22.856-52.367-15.642-20.403-34.684-16.322-22.263z"/><path d="m371.989 241.513-25.163 6.121-22.874-7.243c-9.414-2.981-13.936-13.669-9.52-22.501 3.711-7.423 1.158-16.451-5.891-20.831l-30.367-18.869c-13.758-8.548-15.685-27.81-3.894-38.915 5.285-4.978 13.252-5.792 19.435-1.987l59.4 36.557 29.074 12.242z"/><path d="m144.722 162.36 18.674-23.162-13.114-32.054 26.987-20.127 30.48 41.432 12.489 62.931-9.429 12.048-52.366-15.642z"/><path d="m295.731 40.666-19.634 94.749c-.495 2.158-2.528 3.604-4.729 3.36l-54.45-6.013 3.48-56.523 5.964 3.128c8.57 4.494 18.525-2.943 16.646-12.435l-2.548-12.872 49.512-18.545c3.295-1.233 6.619 1.74 5.759 5.151z"/><path d="m494.914 356.156v9.982h7.141z"/></g><path d="m471.902 375.585-31.942-11.321 7.943-4.096c12.258-6.32 20.814-18.234 22.888-31.868 2.926-19.238-7.47-38.149-25.28-45.988l-47.77-21.028c-8.316-3.656-18.239-.992-23.599 6.338l-.744 1.019c-.841 1.149-1.992 1.35-2.604 1.367-.622.022-1.771-.12-2.675-1.221-4.304-5.245-9.618-9.388-15.544-12.259l21.776-5.297c3.832-.933 6.758-4.028 7.472-7.906l10.201-55.427c.85-4.618-1.627-9.205-5.954-11.026l-28.366-11.945-58.747-36.154c-3.274-2.015-6.866-3.213-10.515-3.653l17.049-82.272c1.189-5.116-.489-10.438-4.415-13.95-3.995-3.573-9.595-4.624-14.612-2.744l-49.512 18.545c-4.585 1.717-7.253 6.503-6.302 11.306l2.548 12.872c.051.257.186.938-.58 1.51-.767.572-1.38.25-1.612.129l-5.964-3.128c-3.002-1.575-6.6-1.522-9.554.144-2.954 1.664-4.863 4.713-5.072 8.098l-2.249 36.518-22.844-31.053c-1.578-2.146-3.947-3.572-6.581-3.965-2.638-.393-5.316.282-7.452 1.874l-26.987 20.127c-3.656 2.728-5.004 7.582-3.277 11.803l10.879 26.589-6.751 8.374-15.371-20.966c-.961-1.312-2.229-2.369-3.69-3.081l-36.725-17.862c-3.721-1.808-8.175-1.14-11.199 1.685l-72.089 67.323c-2.851 2.663-3.893 6.739-2.671 10.443l8.841 26.78c.864 2.617 2.77 4.762 5.268 5.927.554.259 1.126.464 1.709.616v34.432l-13.856 15.877c-3.257 3.731-3.291 9.284-.081 13.057l2.722 3.197-3.704 8.329c-3.781 8.505-5.109 17.874-3.84 27.094l.072.521c2.662 19.33 15.757 35.341 34.174 41.785l43.819 15.33c5.214 1.826 10.918-.923 12.742-6.136 1.823-5.213-.924-10.918-6.137-12.742l-43.819-15.33c-11.299-3.954-19.333-13.776-20.966-25.634l-.072-.52c-.761-5.527.035-11.143 2.302-16.241l6.261-14.08c1.562-3.515.971-7.614-1.523-10.544l-1.215-1.428 10.654-12.209c1.59-1.821 2.466-4.157 2.466-6.575v-50.836c0-3.315-1.643-6.415-4.387-8.275-2.022-1.373-4.453-1.942-6.822-1.651l-3.61-10.936 62.392-58.271 28.319 13.773 14.559 19.858 20.147 34.25c1.28 2.177 3.337 3.788 5.757 4.512l52.366 15.642c3.943 1.178 8.202-.18 10.737-3.419l11.327-14.474 17 15.107c2.564 2.278 6.12 3.082 9.414 2.133l10.072-2.905-13.343 21.099c-16.314 6.589-27.979 21.627-30.136 39.277-3.155 25.816 11.3 51.091 35.152 61.463l24.051 10.457 3.093 16.276c.364 1.914 1.279 3.681 2.634 5.082l12.666 13.107c5.301 5.483 13.212 6.994 20.162 3.844 6.946-3.149 11.026-10.097 10.394-17.698l-1.355-16.244 11.719-24.053c1.682-3.452 1.238-7.562-1.142-10.576l-16.804-21.284c-1.248-1.581-2.052-3.473-2.324-5.469-.447-3.279.505-6.459 2.682-8.951 2.176-2.493 5.196-3.866 8.506-3.866 7.856 0 15.222 3.483 20.206 9.558 4.611 5.62 11.378 8.715 18.693 8.526 7.268-.203 13.898-3.686 18.19-9.554l.508-.695 47.403 20.866c9.557 4.206 15.134 14.354 13.563 24.677-1.112 7.315-5.703 13.708-12.279 17.099l-10.23 5.274c-6.699 3.455-10.697 10.547-10.188 18.066.511 7.52 5.432 14.006 12.535 16.523l22.787 8.076-9.659 15.938c-1.536 2.534-3.974 4.291-6.864 4.947-2.888.656-5.845.122-8.325-1.501l-24.804-16.24c-3.072-2.012-7.001-2.18-10.233-.431-3.231 1.746-5.245 5.124-5.245 8.797v16.28l-12.763 3.386c-1.922.511-3.647 1.581-4.957 3.076l-37.002 42.237h-14.788l11.385-22.154c1.593-3.1 1.457-6.806-.359-9.78-1.815-2.976-5.05-4.79-8.535-4.79h-10.93l-35.905-32.599c-3.017-2.737-7.391-3.374-11.059-1.605l-11.716 5.641h-40.904l-40.889-14.306c-5.212-1.826-10.917.923-12.741 6.136s.923 10.918 6.136 12.741l42.492 14.867c1.061.372 2.178.561 3.303.561h44.886c1.502 0 2.985-.338 4.338-.99l7.7-3.707 33.776 30.664c1.459 1.325 3.267 2.181 5.192 2.479l-11.445 22.272c-1.593 3.1-1.457 6.806.359 9.78 1.815 2.975 5.05 4.79 8.535 4.79h35.704c2.882 0 5.623-1.243 7.521-3.41l37.98-43.354 17.25-4.577c4.384-1.164 7.436-5.131 7.436-9.666v-5.473l9.326 6.107c7.058 4.62 15.474 6.141 23.705 4.272 8.229-1.866 15.169-6.868 19.543-14.085l16.026-26.443c1.56-2.572 1.878-5.709.867-8.542-1.008-2.834-3.24-5.061-6.075-6.066zm-124.026-193.225c.435.268.89.502 1.36.699l21.664 9.123-7.572 41.145-16.148 3.928-20.209-6.399c-2.319-.734-3.348-2.457-3.755-3.419s-.927-2.9.161-5.076c6.06-12.117 1.95-26.647-9.558-33.798l-30.365-18.868c-3.9-2.423-6.399-6.433-6.856-11.001s1.198-8.993 4.54-12.141c1.154-1.087 2.653-1.647 4.163-1.647 1.095 0 2.196.295 3.175.897zm-118.343-91.759c5.259.553 10.611-.873 15.056-4.194 6.7-5.005 9.854-13.211 8.23-21.415l-.899-4.544 31.983-11.979-16.538 79.805-39.88-4.403zm-22.396 101.294-42.067-12.566-8.936-15.191 15.048-18.664c2.286-2.836 2.85-6.691 1.47-10.062l-10.18-24.885 12.707-9.477 23.195 31.529 11.163 56.249zm49.04-.283-20.838-18.517c-2.062-1.833-4.788-2.733-7.543-2.483-.488.044-.965.136-1.436.249l-5.477-27.6 37.061 4.093c-1.257 4.248-1.705 8.757-1.247 13.331 1.08 10.796 6.985 20.273 16.201 25.999l.116.072zm52.703 71.017c-5.943 6.809-8.652 15.85-7.431 24.805.754 5.535 2.983 10.778 6.444 15.161l12.91 16.353-10.171 20.877c-.788 1.617-1.125 3.417-.975 5.21l1.072 12.863-6.323-6.544-3.522-18.537c-.617-3.25-2.803-5.984-5.837-7.304l-28.9-12.565c-15.793-6.867-25.364-23.602-23.275-40.694 1.364-11.161 9.177-20.551 19.902-23.922 2.257-.71 4.189-2.196 5.454-4.195l27.401-43.33 7.637 4.745c2.678 1.664 3.634 5.045 2.224 7.865-3.415 6.83-3.667 14.781-.691 21.813 2.976 7.033 8.857 12.388 16.136 14.692l7.25 2.296c-7.436 1.025-14.308 4.686-19.305 10.411z"/><path d="m510.188 360.319-7.141-9.981c-2.527-3.534-7.048-5.03-11.189-3.703-4.138 1.327-6.944 5.176-6.944 9.522v9.981c0 5.523 4.477 10 10 10h7.141c3.747 0 7.18-2.095 8.894-5.428 1.713-3.332 1.42-7.343-.761-10.391z"/><path d="m124.305 371.806c-2.63 0-5.21 1.07-7.07 2.931-1.86 1.859-2.93 4.439-2.93 7.069 0 2.631 1.069 5.2 2.93 7.07 1.86 1.86 4.44 2.93 7.07 2.93s5.21-1.069 7.069-2.93c1.87-1.87 2.931-4.439 2.931-7.07 0-2.63-1.061-5.21-2.931-7.069-1.859-1.861-4.439-2.931-7.069-2.931z"/></svg>