<svg enable-background="new 0 0 511.998 511.998" viewBox="0 0 511.998 511.998" xmlns="http://www.w3.org/2000/svg"><path d="m474.566 187.709c-6.949-1.206-24.026-.813-28.644-6.712-4.441-5.672 3.129-11.099-1.841-16.794-2.315-2.652-5.971-.786-8.32-2.887-4.017-3.592-2.56-6.109-3.711-10.924-2.802-11.724-11.042-20.57-18.129-30.019-5.133-6.844-15.063-15.791-17.775-23.909-3.251-9.73 2.424-22.15-.425-32.214-2.061-7.283-8.362-12.493-16.051-12.452-10.133.054-14.132 7.85-18.062 15.698-8.313 16.601-16.262 33.397-24.39 50.09-5.011 10.29-13.768 41.257-28.057 40.948-21.375-.463-9.164-29.095-14.953-39.519-5.084-9.154-24.652-11.781-33.846-14.21-8.376-2.213-7.08-1.85-12.217 5.179-7.512 10.281-15.026 20.562-22.538 30.842-10.393 14.222-20.424 35.732-36.367 44.082-13.241 6.935-14.268 6.313-16.365 20.827-1.52 10.519-5.007 28.99 12.475 26.649 4.702-.629 8.09-5.761 13.232-3.335 4.035 1.904 2.795 6.1 5.241 8.541 6.28 6.267 16.049 3.895 21.679-2.514 4.776-5.437 8.774-15.221 7.653-22.311-1.414-8.938-6.482-8.867-3.572-16.972 3.235-9.01 16.118-29.727 27.514-25.073 9.508 3.883 11.65 20.433 16.712 28.562 1.376 2.21 2.551 6.093 5.387 6.129 2.904.037 1.159-5.817 2.736-6.34.872-.289 5.518 10.256 5.487 11.513-.202 8.234-10.569 8.902-16.382 13.065-6.356 4.554-12.407 11.386-15.156 18.839-2.071 5.611-1.599 11.5-4.537 17.072-11.674 22.136-40.495 18.308-61.594 19.862-25.916 1.908-53.598 21.119-73.37 36.547-5.779 4.509-12.109 8.899-14.315 16.289-1.359 4.552.283 8.725-.654 12.962-1.888 8.542-8.148 17.617-11.833 25.585-10.807-5.112-21.526-10.49-32.449-15.347-12.955-5.761-20.125-2.231-26.605 9.755-6.459 11.947-14.437 24.458-19.266 37.146-4.987 13.104 6.363 14.465 14.127 22.853 7.021 7.586 5.921 11.365 17.323 10.631 7.477-.482 13.152 1.684 20.519 1.862 12.613.306 21.942-15.358 29.709-23.672 4.582-4.905 8.874-9.79 15.011-12.881 9.087-4.578 11.608-2.841 16.926-11.209 6.165-9.701 9.57-9.35 21.359-6.102 9.145 2.519 12.886-.152 21.078-3.832 19.365-8.698 16.544 11.896 27.621 21.959 3.284 2.984 25.696 26.204 29.217 25.074 2.066-.663-20.032-48.968-16.751-54.915 8.339-15.108 49.155 26.652 51.225 37.205.818 4.167-.825 9.299.535 13.3 1.252 3.683 5.598 7.878 7.814 10.997 5.14 7.234 10.654 19.733 18.173 24.717 12.508 8.291 21.318-12.942 17.056-22.4-4.046-8.978-19.104-17.173-2.771-22.862 8.59-2.992 21.217-2.925 28.455-9.003 8.172-6.864 2.607-9.568-.632-16.702-4.539-9.995 3.258-22.594 6.816-32.021 4.324-11.452 5.972-19.556 18.689-11.822 15.859 9.643 18.947.282 33.041-4.161 13.853-4.366 32.039 10.391 46.786 11.306 9.825.609 20.924-2.242 30.707-3.29 9.619-1.03 21.952-.242 31.137-3.336 5.571-1.877 10.217-6.633 5.76-12.447-3.526-4.599-12.496-4.382-17.59-5.796-18.628-5.17-28.885-19.851-23.029-39.198 2.638-8.715 9.843-17.801 6.439-25.738-4.068-9.486-15.78-19-22.468-27.054 8.758-7.125 17.312-14.67 26.349-21.437 2.326-1.742 6.235-3.705 8.2-5.63 5.966-5.841 7.43-17.146-3.523-19.046z" fill="#039"/><path d="m81.968 288.148c23.284 0 60.444 4.963 54.018-30.668-2.008-11.133-8.295-23.366-8.52-34.641-.169-8.509 8.509-22.314.849-29.632-7.124-6.808-30.063-7.103-33.144 3.502-3.068 10.562 4.262 21.911.851 33.162-3.161 10.427-8.708 20.614-12.952 30.658-2.186 5.177-15.271 27.619-1.102 27.619z" fill="#039"/><path d="m290.765 470.218c-3.774 0-7.609-1.168-11.159-3.521-7.175-4.756-12.125-13.058-16.493-20.384-1.548-2.596-3.01-5.048-4.313-6.882-.473-.665-1.26-1.608-2.094-2.606-2.616-3.132-5.581-6.682-7.038-10.969-1.387-4.076-1.141-7.989-.942-11.135.069-1.093.161-2.552.089-3.267-.94-2.328-6.512-10.222-15.958-19.121-5.969-5.624-10.673-9.021-14.021-10.992 2.36 7.604 6.544 18.524 8.934 24.758 6.77 17.67 7.81 20.386 5.507 25.187-1.207 2.517-3.419 4.448-6.068 5.297-6.815 2.184-12.641-2.423-20.765-9.698-5.265-4.717-11.018-10.397-14.825-14.156-1.519-1.498-2.951-2.914-3.427-3.346-5.33-4.843-8.111-10.895-10.344-15.758-.851-1.851-2.082-4.531-2.926-5.648-.564.085-1.679.353-3.504 1.173-.95.427-1.837.839-2.679 1.231-6.985 3.247-13.581 6.313-25.167 3.122-1.856-.511-6.023-1.659-7.621-1.701-.371.356-1.199 1.283-2.617 3.514-5.143 8.092-9.368 10.149-15.226 12.367-1.68.635-3.417 1.293-5.65 2.418-4.094 2.062-7.388 5.604-11.202 9.704l-.994 1.067c-1.44 1.542-3.067 3.527-4.788 5.63-7.46 9.106-17.672 21.576-32.487 21.22-3.863-.093-7.255-.626-10.248-1.097-3.361-.528-6.263-.988-9.384-.783-12.939.831-17.417-3.677-21.929-9.664-.981-1.302-1.996-2.648-3.396-4.16-1.573-1.699-3.57-3.139-5.683-4.664-5.848-4.218-16.733-12.068-10.457-28.563 3.801-9.985 9.217-19.527 14.456-28.754 1.887-3.325 3.669-6.465 5.361-9.593 9.299-17.203 22.219-21.83 39.494-14.147 7.426 3.303 14.808 6.865 21.949 10.31.666.322 1.332.643 1.998.964 2.741-5.049 5.531-10.24 6.475-14.517.129-.585.054-1.861-.021-3.096-.161-2.708-.383-6.418.856-10.569 2.952-9.884 10.397-15.636 16.379-20.258l1.376-1.066c7.934-6.192 20.041-15.311 33.506-22.984 4.812-2.74 10.931-1.063 13.672 3.747 2.74 4.809 1.063 10.93-3.746 13.671-12.335 7.028-23.657 15.563-31.099 21.371l-1.452 1.126c-4.464 3.45-8.321 6.43-9.426 10.13-.227.757-.146 2.092-.054 3.638.141 2.361.316 5.301-.416 8.617-1.578 7.139-5.325 14.035-8.629 20.121-1.454 2.677-2.828 5.206-3.894 7.51-1.122 2.426-3.166 4.304-5.68 5.215-2.513.912-5.285.781-7.703-.362-3.623-1.714-7.239-3.458-10.853-5.202-7.001-3.379-14.242-6.872-21.383-10.047-3.655-1.627-6.493-2.195-7.988-1.609-.928.365-2.906 1.756-5.726 6.972-1.79 3.312-3.708 6.689-5.563 9.957-4.866 8.572-9.899 17.436-13.153 25.987-.398 1.047-.518 1.683-.554 1.992.672.781 2.651 2.209 4 3.182 2.556 1.842 5.736 4.137 8.668 7.305 2.088 2.255 3.532 4.172 4.694 5.712.45.597.983 1.305 1.343 1.73.48.055 1.474.112 3.286-.006 5.333-.343 9.824.362 13.787.984 2.611.411 5.079.798 7.622.86.036.001.074.001.111.001 5.007 0 11.577-8.019 16.383-13.886 1.935-2.361 3.763-4.592 5.646-6.609l.966-1.036c4.479-4.816 9.557-10.275 16.862-13.954 3.171-1.598 5.715-2.561 7.574-3.264 3.391-1.283 3.456-1.308 5.401-4.369 9.729-15.31 19.177-14.053 32.481-10.389 4.49 1.236 5.545.745 11.394-1.974.915-.426 1.881-.875 2.914-1.338 9.145-4.108 16.919-3.947 23.1.477 5.016 3.588 7.536 9.077 9.761 13.918 1.699 3.701 3.306 7.197 5.608 9.288.187.169.399.368.645.602-5.69-16.2-6.532-22.729-3.696-27.867 3.485-6.314 10.118-9.374 17.757-8.176 18.873 2.955 49.529 35.297 52.079 48.295.617 3.144.428 6.159.275 8.581-.071 1.136-.178 2.833-.067 3.464.417.926 2.297 3.177 3.427 4.53 1.044 1.25 2.124 2.543 3.05 3.846 1.769 2.49 3.431 5.276 5.19 8.227 3.067 5.143 6.872 11.527 10.21 13.845 1.833-1.96 3.412-7.702 2.52-9.835-.603-1.338-2.278-3.383-3.758-5.187-3.829-4.671-9.073-11.068-6.807-19.112 2.308-8.196 10.835-11.166 13.637-12.141 3.676-1.28 7.624-2.042 11.441-2.777 5.196-1.001 10.558-2.036 13.421-4.092-.875-1.407-1.915-3.125-2.869-5.225-5.47-12.043.127-24.8 4.214-34.116.885-2.019 1.722-3.925 2.35-5.589.331-.876.646-1.731.949-2.56 2.73-7.427 5.554-15.107 13.572-17.908 7.288-2.544 14.192.847 18.752 3.62 6.237 3.793 6.985 3.384 12.805.216 3.083-1.678 6.92-3.766 12.017-5.372 11.547-3.638 23.437 1.28 33.928 5.619 5.901 2.441 12.002 4.965 16.491 5.242 5.485.343 12.117-.724 18.53-1.753 3.449-.554 7.016-1.127 10.489-1.498 3.45-.37 7.128-.523 10.687-.673 3.372-.141 6.803-.285 9.999-.606-1.01-.187-2.015-.404-2.991-.676-12.421-3.447-22.175-10.642-27.467-20.258-5.069-9.21-5.924-20.103-2.475-31.502.995-3.29 2.378-6.322 3.716-9.254 1.394-3.058 3.729-8.178 3.106-9.628-2.029-4.73-7.784-10.639-12.861-15.852-2.935-3.012-5.705-5.858-8.107-8.749-1.709-2.059-2.525-4.715-2.264-7.378.26-2.663 1.574-5.112 3.65-6.801 2.865-2.331 5.784-4.771 8.606-7.13 5.81-4.857 11.818-9.88 18.062-14.555 1.27-.95 2.657-1.811 3.999-2.643 1.015-.628 2.712-1.681 3.21-2.139.652-.638 1.093-1.417 1.34-2.062-1.339-.198-3.364-.371-5.495-.551-10.137-.86-22.756-1.93-28.909-9.79-4.468-5.705-3.809-11.584-2.988-15.241-1.855-.481-3.99-1.383-5.964-3.149-5.745-5.138-6.191-10.462-6.457-13.644-.078-.93-.14-1.666-.32-2.419-1.808-7.564-7.005-14.227-12.508-21.281-1.31-1.679-2.618-3.359-3.892-5.056-1.358-1.812-3.286-3.992-5.326-6.302-5.355-6.058-11.423-12.925-13.936-20.446-2.37-7.094-1.52-14.318-.769-20.691.543-4.612 1.056-8.967.206-11.97-.888-3.136-3.366-5.158-6.319-5.158-.012 0-.022 0-.034 0-3.391.018-4.93 1.727-9.152 10.161-5.513 11.007-10.968 22.32-16.246 33.258-2.692 5.581-5.384 11.163-8.096 16.733-.843 1.729-1.977 4.569-3.176 7.576-6.212 15.56-15.577 39.007-33.654 39.01-.152 0-.303-.001-.456-.005-6.891-.149-12.433-2.378-16.472-6.622-7.171-7.538-6.858-18.698-6.605-27.666.094-3.325.251-8.891-.449-10.437-1.965-3.535-16.651-6.812-21.477-7.888-2.218-.495-4.314-.962-6.139-1.444-.152-.041-.311-.082-.47-.124-.333.472-.696.98-1.095 1.526l-22.538 30.842c-2.514 3.439-5.07 7.438-7.776 11.673-8.375 13.103-17.868 27.955-32.033 35.374-1.065.558-2.054 1.068-2.97 1.542-2.749 1.419-5.866 3.028-6.446 3.691-.648 1.012-1.425 6.384-1.68 8.149l-.206 1.41c-.419 2.832-1.642 11.115-.653 13.963.364.034.964.044 1.867-.064.36-.149 1.087-.553 1.63-.856 3.11-1.733 9.582-5.337 17.426-1.636 6.348 2.996 8.05 8.55 8.775 11.043.306.139.682.222 1.194.207 1.692-.056 3.712-1.145 5.143-2.773 3.275-3.728 5.842-10.595 5.283-14.13-.303-1.911-.807-2.822-1.642-4.332-2.282-4.128-4.466-9.231-1.464-17.594 2.15-5.986 11.326-24.428 24.84-30.449 5.37-2.393 10.869-2.57 15.897-.516 10.395 4.246 14.52 15.285 17.833 24.156.456 1.22.917 2.455 1.378 3.62 2.775-.518 5.683.145 8.005 1.867 4.342 3.219 9.439 15.586 9.335 19.75-.299 12.111-10.6 16.474-16.134 18.818-1.727.732-3.512 1.487-4.431 2.146-5.336 3.824-9.778 9.249-11.59 14.16-.566 1.536-.885 3.388-1.253 5.532-.622 3.63-1.398 8.148-3.823 12.746-3.889 7.376-9.599 13.128-16.971 17.095-2.668 1.436-5.616 2.668-8.761 3.66-5.277 1.663-10.909-1.263-12.575-6.541-1.666-5.279 1.262-10.909 6.541-12.575 1.949-.615 3.731-1.354 5.294-2.196 3.908-2.103 6.685-4.897 8.74-8.793.939-1.779 1.337-4.098 1.797-6.785.468-2.726.998-5.816 2.204-9.083 3.219-8.727 10.044-17.298 18.721-23.515 1.834-1.314 3.772-2.31 5.635-3.157-2.702-2.288-4.232-5.262-5.017-6.791-.177-.344-.42-.816-.519-.976-2.219-3.563-3.815-7.835-5.358-11.966-1.478-3.956-4.189-11.213-6.419-12.507-3.378.77-11.546 10.831-14.506 19.075-.077.215-.136.394-.179.539.104.192.22.401.319.58 1.213 2.193 3.045 5.508 3.898 10.9 1.68 10.615-3.771 23.374-10.022 30.492-5.138 5.849-12.261 9.341-19.546 9.579-6.343.205-12.281-2.132-16.744-6.586-1.539-1.536-2.517-3.179-3.177-4.668-1.828.948-4.104 1.93-6.884 2.302-9.932 1.33-15.794-2.214-18.959-5.423-8.332-8.446-6.306-22.167-4.964-31.246l.197-1.347c2.423-16.769 5.719-20.047 18.769-26.785.884-.457 1.837-.948 2.866-1.487 9.445-4.947 17.068-16.876 24.444-28.413 2.879-4.505 5.599-8.76 8.481-12.703l22.538-30.842c.643-.879 1.176-1.646 1.637-2.308 2.119-3.043 4.521-6.493 9.426-7.758 3.848-.992 7.185-.11 11.806 1.11 1.45.383 3.362.81 5.384 1.261 11.944 2.665 28.301 6.315 34.664 17.774 3.348 6.027 3.138 13.476 2.936 20.681-.099 3.531-.332 11.8 1.091 13.285.12.084.848.366 2.383.399-.017-.002 2.375-.613 6.458-7.553 3.348-5.689 6.259-12.983 8.6-18.844 1.399-3.503 2.607-6.528 3.77-8.918 2.701-5.548 5.383-11.107 8.065-16.666 5.308-11.004 10.797-22.384 16.376-33.524 4.215-8.419 10.586-21.146 26.97-21.233h.145c11.978 0 22.255 7.918 25.603 19.746 1.936 6.844 1.128 13.713.413 19.774-.554 4.705-1.077 9.148-.126 11.995 1.22 3.653 6.057 9.125 9.943 13.521 2.315 2.619 4.501 5.094 6.344 7.548 1.198 1.598 2.43 3.176 3.661 4.756 6.271 8.04 13.377 17.151 16.196 28.948.445 1.861.626 3.449.739 4.704 2.566.391 6.119 1.436 9.096 4.847 5.862 6.716 4.221 13.811 3.296 17.41 3.501 1.103 10.438 1.691 13.707 1.968 2.937.25 5.473.464 7.646.842 7.782 1.35 13.459 6.029 15.577 12.838 2.372 7.623-.341 16.964-6.752 23.245-1.982 1.941-4.466 3.482-6.66 4.841-.974.604-1.983 1.229-2.547 1.652-5.811 4.351-11.61 9.199-17.218 13.887-.193.161-.388.324-.582.486.066.068.133.136.199.204 6.294 6.463 13.428 13.788 16.924 21.938 4.117 9.6.011 18.608-3.29 25.846-1.112 2.439-2.162 4.742-2.768 6.746-1.876 6.2-1.591 11.594.851 16.029 2.706 4.918 7.985 8.586 15.266 10.607.869.242 2.402.477 3.882.706 5.91.91 14.002 2.156 18.982 8.651 3.609 4.708 4.733 10.131 3.165 15.272-1.762 5.78-6.748 10.435-13.68 12.772-7.554 2.545-16.228 2.908-23.88 3.227-3.387.141-6.586.276-9.389.575-2.95.316-6.106.823-9.447 1.359-7.493 1.203-15.24 2.446-22.949 1.969-7.824-.485-15.494-3.658-22.912-6.727-7.333-3.033-15.643-6.474-20.24-5.024-3.246 1.023-5.778 2.402-8.46 3.861-7.443 4.05-16.705 9.093-32.803-.695-.471-.287-.885-.522-1.247-.716-.611 1.43-1.292 3.28-1.848 4.792-.324.882-.659 1.791-1.01 2.722-.815 2.156-1.796 4.395-2.746 6.561-2.712 6.183-6.088 13.879-4.32 17.774.496 1.095 1.162 2.161 1.865 3.29 2.687 4.31 8.98 14.403-3.913 25.232-6.711 5.636-15.344 7.3-22.961 8.769-2.423.467-4.745.915-6.724 1.443.054.066.107.131.159.195 2.268 2.766 4.837 5.902 6.534 9.663 4.636 10.284.783 26.036-8.244 33.708-3.659 3.109-7.95 4.678-12.325 4.679z"/><path d="m189.822 289.438c-5.195 0-9.626-4-10.025-9.261-.42-5.52 3.673-10.332 9.193-10.751l.146-.011c5.534-.424 10.377 3.714 10.796 9.231.42 5.52-3.673 10.332-9.193 10.751l-.146.011c-.259.021-.517.03-.771.03z"/><path d="m98.511 298.407c-3.076 0-6.098-.063-9.003-.125-2.671-.056-5.194-.109-7.539-.109-8.356 0-12.406-4.479-14.077-7.15-5.584-8.926-.688-20.701 4.808-31.997.467-.96.95-1.955 1.138-2.397 1.473-3.487 3.089-6.975 4.653-10.35 3.101-6.693 6.03-13.015 7.941-19.317 1.037-3.422.265-7.624-.631-12.49-1.132-6.149-2.415-13.119-.253-20.56 2.01-6.919 7.772-11.982 16.227-14.256 10.165-2.735 25.348-1.454 33.465 6.304 9.398 8.979 6.014 21.368 3.775 29.567-.692 2.536-1.555 5.691-1.526 7.112.104 5.226 2.08 11.338 4.172 17.81 1.602 4.953 3.258 10.075 4.191 15.253 2.257 12.514.215 22.591-6.069 29.951-9.554 11.187-26.047 12.754-41.272 12.754zm-12.247-20.24c1.197.021 2.417.046 3.667.072 12.362.262 29.292.619 34.605-5.603 2.19-2.565 2.723-7.065 1.586-13.376-.695-3.852-2.076-8.123-3.537-12.644-2.447-7.57-4.978-15.396-5.14-23.577-.086-4.312 1.092-8.623 2.231-12.793.788-2.886 2.245-8.222 1.69-9.813-2.913-2.489-13.862-2.769-16.678-.508-.66 2.841.031 6.599.826 10.919 1.137 6.172 2.55 13.855.1 21.935-2.317 7.642-5.681 14.904-8.935 21.927-1.562 3.37-3.036 6.552-4.375 9.723-.394.931-.916 2.005-1.577 3.365-2.143 4.404-3.633 7.871-4.463 10.373z"/></svg>